<svg width="2500" height="582" fill="none" xmlns="http://www.w3.org/2000/svg"><path fill="#000" d="M0 0h2500v582H0z"/><path fill-rule="evenodd" clip-rule="evenodd" d="M629.804 2.842c-6.6 20.064-22.763 69.92-22.763 70.214 0 .212 5.629.386 12.51.386h12.509l1.822-6.776 1.822-6.776h22.417l2.278 6.776 2.278 6.776h23.856l-7.125-22.076a15587.776 15587.776 0 0 1-11.801-36.721L662.93 0h-32.191l-.935 2.842Zm95.927 5.464v8.306h22.651v56.83H771.939v-56.83h22.651V0H725.731v8.306Zm109.63 28.415v36.721H858.918V45.464h25.369v27.978H907.844V0H884.287v27.978h-25.369V0H835.361v36.721Zm119.597 0v36.721h58.892V56.83h-35.336V45.51l14.27-.242 14.266-.24V28.415l-14.266-.24-14.27-.242V16.612H1012.04V0h-57.082v36.721Zm106.002 0v36.721h22.65V32.793l14.05 20.324 14.05 20.325h22.64V0h-22.61l-.25 19.757-.24 19.757-13.87-19.757L1083.52 0h-22.56v36.721Zm141.55-35.366c-13.81 3.588-20.55 10.483-20.48 20.94.08 12.173 9.39 19.12 30.13 22.483 12.25 1.986 14.95 3.005 15.36 5.794.95 6.464-13.02 9.255-20.94 4.18-1.6-1.03-3.53-3.139-4.28-4.687l-1.35-2.814-11.66-.019-11.65-.02.63 3.231c1.51 7.792 8.48 16.289 16.67 20.319 11.83 5.825 30.85 5.99 43.28.375 14.4-6.502 18.33-22.336 8.02-32.285-4.38-4.224-11.06-6.947-21.74-8.864a21973 21973 0 0 0-11.88-2.13c-6.11-1.094-8.03-2.478-7.3-5.277.74-2.844 4.06-4.22 10.19-4.22 6.16 0 10.16 1.555 13.32 5.176 2.43 2.79 2.45 2.792 13.43 3.313l10.99.521-.64-2.975c-3.15-14.772-18.34-24.494-38.04-24.338-4 .031-9.43.615-12.06 1.297Zm981.93 8.85c-74.43 5.144-142.49 35.51-193.95 86.541-45.98 45.591-73.9 102.703-81.99 167.733-2.03 16.299-2.03 46.431 0 62.951 8.05 65.564 37.42 124.34 85.21 170.516 47.65 46.036 109.1 74.519 177.14 82.106 14.15 1.577 45.82 1.821 59.93.462 59.29-5.715 111.46-26.291 159.33-62.845 11.47-8.754 33.96-30.552 43.84-42.48 67.54-81.537 84.23-191.55 43.59-287.313-42.79-100.825-139.34-168.592-252.68-177.355-10.78-.834-30.68-.99-40.42-.316ZM649.948 43.549c-1.646.148-4.575.148-6.509 0l-3.514-.27 2.577-8.744c1.418-4.808 2.844-9.333 3.168-10.054.354-.786 1.929 2.717 3.931 8.743l3.341 10.055-2.994.27Zm1591.122-.732c47 6.846 89.76 24.653 126.84 52.81 11.88 9.025 35.37 31.922 44.06 42.951 38.77 49.22 57.87 105.813 55.75 165.246-3.88 108.986-77.34 202.671-184.66 235.492-62.66 19.166-129.92 15.254-189.78-11.04-74.13-32.562-128.52-96.273-147.57-172.868-7.68-30.866-9.45-60.975-5.37-91.366 13.24-98.757 82.2-179.554 179.91-210.81 16.39-5.241 36.23-9.56 51.51-11.21 4.73-.511 9.83-1.095 11.32-1.295 1.5-.2 12.3-.229 24.01-.062 15.73.225 24.61.787 33.98 2.152Zm-82 63.51c-16.54 2.854-28.81 8.232-38.21 16.756-7.95 7.204-15.39 16.72-20.52 26.235-4.19 7.775-10.18 24.396-11.98 33.265-1.34 6.561.44 5.658-21.89 11.139-27.72 6.804-35.66 9.816-63.23 23.96-15.99 8.202-21.99 12.058-35.13 22.577-5.89 4.718-9.52 8.277-9.89 9.705-1.06 4.079 12.81 27.011 25.44 42.056 25.59 30.495 72.24 64.315 121.5 88.09 34.35 16.574 57.78 25.984 89.67 36.001 28.32 8.895 64.72 17.287 91.54 21.104 27.01 3.844 65.53 3.822 88.43-.051 13.38-2.263 30.08-6.521 35.24-8.99 5.94-2.832 6.33-5.217 3.26-19.96-4.93-23.718-11.01-39.97-24.04-64.197-13.48-25.082-22.25-38.318-30.33-45.829l-3.25-3.013.01-18.408c0-10.124.61-25.847 1.35-34.94.96-11.832 1.11-18.575.5-23.719-2.55-21.684-11.09-37.584-29.82-55.549-18.43-17.678-43.22-31.551-74.87-41.889-30.6-9.996-52.05-14.102-75.66-14.48-8.72-.139-16.87-.078-18.12.137Zm41.95 39.212c13.13 2.256 42.03 9.796 53.65 13.994 17.09 6.181 29.55 12.633 42.57 22.06 6.48 4.686 13.67 10.411 15.97 12.722 5.57 5.575 9.3 13.159 12.2 24.768 4.26 17.064 1.89 29.292-6.43 33.099-4.48 2.051-7.99.782-15.15-5.47-12.89-11.269-25.4-19.077-49.17-30.701-34.39-16.811-47.16-20.437-120.76-34.265-2.63-.495-5.9-1.82-7.25-2.943-2.12-1.766-2.45-2.685-2.41-6.769.12-12.689 14.17-23.371 36.07-27.419 8.09-1.496 29.45-1.012 40.71.924ZM91.51 149.993c-20.96 4.343-40.616 22.274-51.705 47.164-4.983 11.182-10.664 38.132-11.442 54.265-1.204 24.992 8.8 44.931 26.631 53.082l6.163 2.817 47.656.437c38.307.351 47.945.67 49.136 1.624 4.369 3.503 3.405 13.103-1.823 18.148l-3.067 2.96H12.813l-.952 4.59C10.56 341.356 0 397.555 0 398.205c0 .288 39.447.416 87.659.284l87.658-.24 5.689-2.312c9.372-3.811 15.501-7.799 23.316-15.174 8.15-7.69 13.351-14.633 18.581-24.801 4.908-9.541 7.618-18.635 11.01-36.947 4.98-26.891 3.87-42.608-4.037-57.128-3.752-6.888-12.424-15.275-18.771-18.154-8.491-3.851-12.989-4.171-58.531-4.171-23.538 0-43.456-.245-44.262-.543-.808-.299-2.063-1.656-2.793-3.018-2.693-5.025-1.074-11.451 4.058-16.111l2.89-2.623 65.627-.236c36.096-.129 65.629-.441 65.629-.693 0-.252 2.65-14.799 5.889-32.329 3.239-17.529 5.889-32.659 5.889-33.623 0-1.742-.514-1.752-79.051-1.684-64.025.057-80.171.302-84.94 1.291Zm232.396-.055c-23.304 5.002-45.315 27.132-54.288 54.582-1.324 4.05-7.561 34.935-13.859 68.634-10.918 58.413-11.453 61.821-11.475 73.074-.026 13.549 1.244 19.352 6.507 29.714 4.276 8.417 11.454 15.444 19.797 19.38l6.205 2.927h64.781c61.395 0 65.058-.087 70.076-1.675 15.224-4.818 30.971-18.488 41.232-35.793 7.893-13.314 9.256-18.652 21.655-84.858 11.461-61.201 11.476-61.297 11.484-74.831.006-12.575-.175-14.056-2.515-20.547-3.268-9.066-6.123-13.71-12.237-19.91-5.587-5.665-13.255-9.751-20.868-11.123-7.823-1.409-119.7-1.031-126.495.426Zm170.299 91.591c-18.742 101.395-19.289 105.386-16.338 119.294 3.346 15.762 13.041 28.863 25.613 34.609l6.163 2.817h129.562l5.755-2.046c21.329-7.586 39.918-27.926 48.469-53.035 1.49-4.379 8.824-41.912 19.607-100.344 9.474-51.341 17.226-93.538 17.226-93.769 0-.232-16.301-.422-36.224-.422h-36.224l-.496 1.967c-.273 1.082-7.585 39.989-16.25 86.459-8.665 46.471-16.392 85.681-17.171 87.136-.779 1.454-2.5 3.465-3.822 4.469-2.33 1.768-3.353 1.826-32.535 1.826-33.693 0-33.524.03-34.491-6.12-.304-1.942 5.173-33.726 14.996-86.994 8.511-46.164 15.703-85.016 15.982-86.339l.508-2.404h-73.16l-17.17 92.896Zm249.191-90.054c-.295 1.563-3.097 16.808-6.227 33.879l-5.69 31.038 36.634.228 36.634.23-.49 1.956c-.789 3.147-33.224 177.799-33.224 178.9 0 .738 9.554.94 36.422.771l36.422-.228 12.901-69.945c7.096-38.469 14.627-79.288 16.735-90.71l3.833-20.765h72.953l.941-4.59c.518-2.525 3.198-16.983 5.956-32.131 2.758-15.147 5.225-28.426 5.483-29.508l.467-1.967H743.934l-.538 2.842Zm232.957-1.312c-.609 1.983-45.858 246.239-45.858 247.549 0 .73 9.688.933 36.425.765l36.43-.228 8.39-45.027c4.62-24.765 8.41-45.125 8.43-45.245.08-.68 72.5-.096 72.5.584 0 .853-15.02 83.628-15.92 87.731l-.53 2.414 36.5-.229 36.51-.228 22.89-123.278c12.58-67.803 22.89-123.967 22.91-124.808.02-1.432-2.29-1.53-36.12-1.53h-36.14l-1.37 7.213c-.75 3.968-4.57 24.426-8.48 45.464l-7.11 38.252h-73.14l.54-2.842c9.8-52.221 15.97-85.759 15.97-86.783 0-1.133-4.72-1.304-36.18-1.304-33.669 0-36.208.106-36.647 1.53Zm232.727-.437c-.23.602-10.75 56.765-23.38 124.808l-22.95 123.715 100.11.222c55.06.123 100.32.021 100.57-.226.26-.247 3.02-14.314 6.15-31.26 3.12-16.947 5.92-32.091 6.22-33.653l.54-2.842h-63.91c-50.56 0-63.91-.228-63.86-1.093.03-.601.96-5.617 2.07-11.147l2.02-10.055 54.76-.437 54.76-.437 6.08-31.913c3.34-17.551 6.1-32.798 6.13-33.879l.06-1.967h-108.96l.61-3.716c.33-2.044 1.25-7.158 2.04-11.366l1.44-7.651H1397.07l.48-1.967c.27-1.081 2.93-15.344 5.92-31.694 2.98-16.349 5.66-30.808 5.94-32.131l.52-2.404h-100.22c-79.35 0-100.3.227-100.63 1.093Zm213.47 3.497c-1.22 5.853-45.38 244.174-45.38 244.913 0 .302 16.42.55 36.48.55h36.48l11.31-61.637c6.22-33.9 11.52-61.638 11.78-61.639.25-.001 11.53 27.637 25.06 61.419l24.61 61.42 36.57.228 36.57.229 22.87-123.507c12.58-67.928 22.87-124.195 22.85-125.036-.02-1.431-2.36-1.53-36.26-1.53-25.29 0-36.24.285-36.24.942 0 .518-5.1 28.217-11.33 61.554s-11.32 60.926-11.32 61.309c0 2.387-3.99-7.224-25.89-62.384l-24.37-61.421h-72.84l-.95 4.59Zm233.24-3.497c-.57 1.681-45.77 246.254-45.77 247.694 0 1.097 11.45 1.266 85.57 1.266h85.58l7.18-2.191c23.99-7.311 45.51-32.978 52.22-62.28.75-3.251 6.15-31.681 12.02-63.178 10.29-55.326 10.65-57.683 10.64-69.508-.01-8.887-.45-13.77-1.59-17.825-5.18-18.289-18.17-31.328-34.07-34.192-7.73-1.391-171.3-1.188-171.78.214Zm521.64 66.149c33.76 5.708 57.9 15.039 86.74 33.539 13.83 8.867 24.7 17.632 36.43 29.372 24.37 24.39 40.88 48.185 61.34 88.425 7.87 15.472 17.21 38.846 15.99 40.018-1.1 1.062-56.3.637-68.91-.53-70.68-6.541-143.79-29.606-209.85-66.21-25.73-14.253-58.77-37.958-76.06-54.57-8.63-8.29-21.69-23.754-21.69-25.687 0-1.11-.08-1.054 13.49-9.107 31.67-18.796 70.74-32.39 103.39-35.974 4.74-.52 9.83-1.111 11.33-1.312 7.25-.979 37.62.315 47.8 2.036Zm-1769.827 3.041c1.038.908 2.128 2.886 2.422 4.396.511 2.63-15.671 92.718-17.792 99.047-.516 1.539-2.354 3.998-4.085 5.464L385 330.49h-29.927c-18.064 0-30.592-.344-31.607-.867-.923-.478-2.135-2.198-2.691-3.824-.868-2.539.222-9.736 7.713-50.935 9.416-51.784 9.859-53.367 15.804-56.44 2.942-1.52 5.274-1.622 32.296-1.398 27.076.224 29.26.357 31.015 1.89Zm1377.167 0c1.04.908 2.12 2.875 2.4 4.372.5 2.589-15.69 92.745-17.78 99.071-.51 1.539-2.34 3.998-4.07 5.464l-3.15 2.667h-67.18l.49-1.967c.28-1.082 5.02-26.164 10.54-55.738 5.53-29.573 10.24-54.276 10.46-54.894.33-.894 7.16-1.073 33.41-.874 30.86.234 33.11.356 34.88 1.899Zm258.75 42c-1.3 1.906-1.3 2.377-.07 4.686 1.54 2.862 19.18 18.511 32.32 28.663 23.81 18.393 56.27 36.472 97.11 54.076 29.61 12.763 48.9 19.426 79.97 27.619 32.03 8.446 83.44 18.417 88.57 17.175 3.32-.806 4.7-3.446 3.19-6.126-1.35-2.409-37.48-30.529-54.61-42.508-34.64-24.221-61.39-38.676-97.86-52.886-20.18-7.865-48.82-16.706-69.31-21.397-21.89-5.013-62.8-11.422-72.9-11.422-4.26 0-5.18.303-6.41 2.12Zm-592.98 220.701c-9.74 4.994-9.54 17.643.35 22.32 4.24 2.004 11.96 2.106 15.77.208 3.08-1.54 7.04-5.77 7.93-8.482 1.52-4.632-2.26-11.63-7.79-14.386-3.66-1.826-12.39-1.644-16.26.34Zm-149.48 45.619v39.369l12.01-.244 12-.244.13-39.125.12-39.126h-24.26v39.37Zm73.39 0v39.369l12.01-.244 12-.244.13-39.125.12-39.126h-24.26v39.37Zm-974.26-34.44c-.346.334-.63 4.673-.63 9.642v9.035h-17.215v15.737h17.215v39.344h24.463V527.21H442.144v-15.737h-18.06l-.257-9.399-.257-9.399-11.375-.243c-6.257-.135-11.659.03-12.005.364Zm432.177 0c-.346.334-.63 4.673-.63 9.642v9.035h-17.214v15.737h17.214v39.344H856.2V527.21H874.321v-15.737H856.262l-.258-9.399-.257-9.399-11.375-.243c-6.256-.135-11.659.03-12.005.364Zm-541.322 1.671c-13.809 3.589-20.555 10.483-20.484 20.94.082 12.173 9.39 19.12 30.128 22.483 12.251 1.986 14.952 3.005 15.362 5.794.953 6.464-13.021 9.255-20.936 4.18-1.605-1.03-3.531-3.139-4.279-4.687l-1.359-2.814-11.652-.019-11.654-.019.629 3.231c1.515 7.791 8.486 16.288 16.67 20.318 11.835 5.825 30.852 5.991 43.284.375 14.393-6.502 18.325-22.336 8.015-32.285-4.376-4.224-11.054-6.947-21.735-8.864l-11.885-2.13c-6.111-1.094-8.025-2.478-7.297-5.277.74-2.844 4.064-4.22 10.193-4.22 6.16 0 10.161 1.555 13.32 5.177 2.432 2.789 2.442 2.791 13.424 3.312l10.99.521-.634-2.975c-3.151-14.772-18.346-24.494-38.041-24.338-4.007.031-9.433.615-12.059 1.297Zm798.695.294c-2.86.909-7.26 2.928-9.77 4.486-15.8 9.779-21.75 33.009-12.93 50.403 3.24 6.374 11.32 13.549 18.13 16.089 7.33 2.734 20.06 3.32 26.66 1.23 12.73-4.027 23.39-15.532 25.72-27.737l.63-3.279H1116.67l-2.05 4.31c-2.93 6.182-6.71 8.236-14.28 7.771-4.93-.304-6.26-.755-8.67-2.941-3.87-3.515-5.34-7.227-5.34-13.511 0-11.146 6.23-18.361 15.86-18.361 6.85 0 12.28 3.857 13.6 9.659l.59 2.582h10.8c12.32 0 11.87.377 9.36-7.929-2.89-9.527-10-17.506-19.29-21.643-6.89-3.064-19.76-3.592-27.51-1.129Zm-566.229 15.312c-4.692 1.219-5.748 1.868-11.377 6.998-4.149 3.781-4.24 3.717-3.873-2.757l.161-2.841h-24.601v55.132l12.005-.244 12.005-.244.184-14.725c.201-16.144.837-19.207 4.737-22.813 5.523-5.106 12.726-2.256 14.096 5.575l.622 3.548h23.608l-.654-5.897c-1.343-12.108-6.126-19.254-14.517-21.691-5.162-1.499-6.766-1.504-12.396-.041Zm95.476-.246c-10.349 1.661-20.744 9.138-24.699 17.768-5.474 11.941-1.25 27.443 9.381 34.428 7.19 4.723 11.794 5.847 23.758 5.799 9.121-.036 11.716-.365 16.111-2.041 5.467-2.083 12.782-6.907 12.752-8.41-.009-.48-3.297-2.759-7.306-5.066l-7.29-4.196-3.833 1.929c-7.514 3.779-18.711 2.714-22.214-2.112-2.959-4.078-2.819-4.104 21.706-4.104h23.062l.583-2.998c.703-3.619-.762-10.714-3.142-15.217-4.145-7.84-13.926-14.282-24.133-15.895-6.162-.974-8.042-.959-14.736.115Zm112.348 0c-10.349 1.661-20.744 9.138-24.699 17.768-5.474 11.941-1.25 27.443 9.381 34.428 7.19 4.723 11.794 5.847 23.758 5.799 9.121-.036 11.716-.365 16.111-2.041 5.467-2.083 12.782-6.907 12.752-8.41-.009-.48-3.297-2.759-7.306-5.066l-7.29-4.196-3.833 1.929c-7.514 3.779-18.711 2.714-22.214-2.112-2.959-4.078-2.819-4.104 21.705-4.104h23.063l.583-2.998c.703-3.619-.762-10.714-3.142-15.217-4.145-7.84-13.926-14.282-24.133-15.895-6.162-.974-8.042-.959-14.736.115Zm207.424-.047c-12.623 2.166-20.949 8.936-20.949 17.036 0 9.929 9.065 15.597 29.191 18.254 6.102.805 8.532 1.505 9.456 2.723 1.084 1.431 1.006 1.869-.607 3.425-1.535 1.481-3.011 1.785-8.693 1.785-6.578 0-6.947-.111-9.476-2.842l-2.631-2.842h-21.804l.597 2.405c1.621 6.527 8.149 12.897 16.518 16.12 4.455 1.715 6.759 1.97 17.801 1.97 11.159 0 13.322-.245 17.98-2.035 6.846-2.631 12.901-8.161 13.751-12.558 2.365-12.222-6.69-18.448-30.825-21.197-6.532-.744-8.607-1.693-8.607-3.939 0-4.862 14.671-4.504 16.623.404.44 1.107 2.476 1.344 11.549 1.344h11.014l-.575-2.841c-1.332-6.59-8.53-13.167-17.34-15.848-5.93-1.804-16.687-2.442-22.973-1.364Zm265.361-.156c-21.12 4.359-30.35 29.872-17.43 48.162 8.78 12.423 27.17 14.207 39.17 3.798l4.53-3.935V566.554h23.56v-55.081h-23.56V518.648l-3.35-2.84c-6.16-5.218-15.46-7.726-22.92-6.184Zm357.28.09c-5.4 1.099-10.71 3.933-14.84 7.915l-3.59 3.461v-9.617H1519.42v55.081H1542.97l.02-14.207c.02-11.89.29-14.784 1.69-17.741 2.03-4.333 6.66-8.237 9.91-8.367 11.85-.473 12.84 1.361 12.84 23.66v16.655h23.68l-.29-21.202c-.26-19.768-.41-21.438-2.24-24.699-5.01-8.963-15.71-13.271-27.18-10.939Zm-114.47 29.3v27.54h24.47v-55.081h-24.47v27.541Zm-222.96-12.91c1.29.905 3.29 3.393 4.45 5.529 3.86 7.136.93 16.556-6.24 20.085-7.2 3.545-14.57 1.26-18-5.581-2.43-4.849-2.38-9.727.16-14.588 3.74-7.149 13.39-9.826 19.63-5.445Zm-589.488.674c1.396.555 4.27 4.643 4.27 6.072 0 .264-5.515.48-12.255.48h-12.254l1.392-2.596c2.84-5.302 11.102-7.036 18.847-3.956Zm112.348 0c1.396.555 4.27 4.643 4.27 6.072 0 .264-5.515.48-12.255.48h-12.254l1.392-2.596c2.84-5.302 11.102-7.036 18.847-3.956Z" fill="#fff"/></svg>